<?xml version="1.0" encoding="iso-8859-1"?>
<!-- Generator: Adobe Illustrator 18.0.0, SVG Export Plug-In . SVG Version: 6.00 Build 0)  -->
<!DOCTYPE svg PUBLIC "-//W3C//DTD SVG 1.1//EN" "http://www.w3.org/Graphics/SVG/1.1/DTD/svg11.dtd">
<svg version="1.1" id="Capa_1" xmlns="http://www.w3.org/2000/svg" xmlns:xlink="http://www.w3.org/1999/xlink" x="0px" y="0px"
	 viewBox="0 0 493.649 493.649" style="enable-background:new 0 0 493.649 493.649;" xml:space="preserve">
<g id="XMLID_169_">
	<path id="XMLID_176_" d="M330.733,64.213c-4.646-4.645-12.169-4.645-16.814,0L98.294,279.838c-4.646,4.647-4.646,12.168,0,16.813
		l98.722,98.725c2.236,2.234,5.257,3.486,8.408,3.486c3.15,0,6.172-1.252,8.405-3.486l215.626-215.641
		c2.234-2.234,3.488-5.256,3.488-8.408c0-3.148-1.254-6.17-3.488-8.406L330.733,64.213z"/>
	<path id="XMLID_173_" d="M77.704,325.971c-2.25-2.252-5.288-3.473-8.406-3.473c-0.803,0-1.607,0.08-2.411,0.24
		c-3.922,0.82-7.17,3.553-8.631,7.266L0.969,474.86c-2.023,5.094-0.818,10.897,3.055,14.77c2.619,2.619,6.14,4.02,9.708,4.02
		c1.704,0,3.424-0.307,5.063-0.965l144.854-57.287c3.713-1.463,6.445-4.707,7.265-8.631c0.804-3.922-0.4-7.988-3.232-10.818
		L77.704,325.971z M50.765,442.887l26.923-68.086l41.165,41.162L50.765,442.887z"/>
	<path id="XMLID_170_" d="M469.719,23.934C454.385,8.6,433.618,0,411.951,0c-21.65,0-42.417,8.6-57.749,23.934
		c-4.647,4.645-4.647,12.166,0,16.813l98.704,98.725c2.235,2.232,5.257,3.486,8.407,3.486c3.151,0,6.173-1.254,8.406-3.486
		C501.625,107.565,501.625,55.84,469.719,23.934z M456.137,90.975l-53.444-53.459c3.007-0.627,6.107-0.947,9.258-0.947
		c12.056,0,23.387,4.693,31.906,13.227c8.536,8.52,13.229,19.852,13.229,31.906C457.085,84.852,456.764,87.955,456.137,90.975z"/>
</g>
<g>
</g>
<g>
</g>
<g>
</g>
<g>
</g>
<g>
</g>
<g>
</g>
<g>
</g>
<g>
</g>
<g>
</g>
<g>
</g>
<g>
</g>
<g>
</g>
<g>
</g>
<g>
</g>
<g>
</g>
</svg>
